<svg width="17" height="16" viewBox="0 0 17 16" fill="none" xmlns="http://www.w3.org/2000/svg">
<path d="M6.62356e-08 4.50354C-0.000207069 3.29474 0.485418 2.13663 1.34761 1.28976C2.20981 0.442885 3.37616 -0.021612 4.58425 0.000773168C6.01564 -0.00683151 7.38146 0.600454 8.335 1.66847C9.28854 0.600454 10.6544 -0.00683151 12.0858 0.000773168C13.2938 -0.021612 14.4602 0.442885 15.3224 1.28976C16.1846 2.13663 16.6702 3.29474 16.67 4.50354C16.67 8.96962 11.3531 12.3417 8.335 15.01C5.32356 12.3192 6.62356e-08 8.97296 6.62356e-08 4.50354Z" fill="white"/>
<path d="M8.33335 15.0009C7.79585 14.5243 7.18835 14.0284 6.54585 13.5009H6.53752C4.27502 11.6509 1.71085 9.5576 0.578352 7.04927C0.206284 6.25071 0.00910567 5.38188 9.50498e-06 4.50094C-0.00247532 3.29217 0.482328 2.13342 1.34486 1.28658C2.20739 0.439728 3.37484 -0.0237343 4.58335 0.000936898C5.56721 0.0024909 6.52988 0.286838 7.35669 0.820103C7.71999 1.05591 8.0487 1.34115 8.33335 1.6676C8.61959 1.34243 8.94839 1.05736 9.31085 0.820103C10.1373 0.286732 11.0997 0.00236902 12.0834 0.000936898C13.2919 -0.0237343 14.4593 0.439728 15.3218 1.28658C16.1844 2.13342 16.6692 3.29217 16.6667 4.50094C16.6582 5.38328 16.461 6.2536 16.0884 7.05344C14.9559 9.56177 12.3925 11.6543 10.13 13.5009L10.1217 13.5076C9.47835 14.0318 8.87169 14.5276 8.33419 15.0076L8.33335 15.0009ZM4.58335 1.6676C3.80711 1.65789 3.05841 1.95497 2.50002 2.49427C1.96201 3.02274 1.66131 3.74681 1.66662 4.50094C1.67612 5.14302 1.82154 5.77581 2.09335 6.3576C2.62794 7.43986 3.34928 8.41931 4.22419 9.25094C5.05002 10.0843 6.00002 10.8909 6.82169 11.5693C7.04919 11.7568 7.28085 11.9459 7.51252 12.1351L7.65835 12.2543C7.88085 12.4359 8.11085 12.6243 8.33335 12.8093L8.34419 12.7993L8.34919 12.7951H8.35419L8.36169 12.7893H8.36585H8.37002L8.38502 12.7768L8.41919 12.7493L8.42502 12.7443L8.43419 12.7376H8.43919L8.44669 12.7309L9.00002 12.2768L9.14502 12.1576C9.37919 11.9668 9.61085 11.7776 9.83835 11.5901C10.66 10.9118 11.6109 10.1059 12.4367 9.26844C13.3117 8.43724 14.0331 7.45803 14.5675 6.37594C14.8442 5.7891 14.9917 5.14969 15 4.50094C15.0035 3.74914 14.703 3.02785 14.1667 2.50094C13.6094 1.9592 12.8605 1.65967 12.0834 1.6676C11.135 1.65954 10.2283 2.05708 9.59169 2.7601L8.33335 4.2101L7.07502 2.7601C6.43841 2.05708 5.53175 1.65954 4.58335 1.6676Z" fill="#303030"/>
</svg>
