<svg width="20" height="20" viewBox="0 0 20 20" fill="none" xmlns="http://www.w3.org/2000/svg">
<path d="M1.64999 7.00054C1.64979 5.79255 2.13541 4.6352 2.99761 3.7889C3.8598 2.94259 5.02616 2.4784 6.23424 2.50077C7.66563 2.49317 9.03146 3.10005 9.98499 4.16735C10.9385 3.10005 12.3044 2.49317 13.7357 2.50077C14.9438 2.4784 16.1102 2.94259 16.9724 3.7889C17.8346 4.6352 18.3202 5.79255 18.32 7.00054C18.32 11.4636 13.0031 14.8335 9.98499 17.5C6.97356 14.811 1.64999 11.467 1.64999 7.00054Z" fill="white"/>
<path d="M9.98335 17.4909C9.44585 17.0146 8.83835 16.5191 8.19585 15.9919H8.18751C5.92501 14.1432 3.36085 12.0512 2.22835 9.54457C1.85628 8.74654 1.6591 7.87829 1.65 6.99794C1.64752 5.78998 2.13232 4.632 2.99485 3.78572C3.85738 2.93943 5.02483 2.47628 6.23335 2.50094C7.2172 2.50249 8.17988 2.78665 9.00668 3.31956C9.36999 3.55521 9.6987 3.84026 9.98335 4.16649C10.2696 3.84154 10.5984 3.55666 10.9608 3.31956C11.7873 2.78654 12.7497 2.50237 13.7333 2.50094C14.9419 2.47628 16.1093 2.93943 16.9718 3.78572C17.8344 4.632 18.3192 5.78998 18.3167 6.99794C18.3082 7.8797 18.111 8.74943 17.7383 9.54874C16.6058 12.0554 14.0425 14.1465 11.78 15.9919L11.7717 15.9986C11.1283 16.5224 10.5217 17.0179 9.98418 17.4976L9.98335 17.4909ZM6.23335 4.16649C5.45711 4.15678 4.70841 4.45367 4.15001 4.99261C3.612 5.52073 3.31131 6.24431 3.31661 6.99794C3.32612 7.63959 3.47154 8.27197 3.74335 8.85337C4.27794 9.9349 4.99927 10.9137 5.87418 11.7448C6.70001 12.5776 7.65001 13.3837 8.47168 14.0616C8.69918 14.2489 8.93085 14.438 9.16251 14.627L9.30835 14.7461C9.53085 14.9277 9.76085 15.1159 9.98335 15.3007L9.99418 15.2907L9.99918 15.2866H10.0042L10.0117 15.2807H10.0158H10.02L10.035 15.2683L10.0692 15.2408L10.075 15.2358L10.0842 15.2291H10.0892L10.0967 15.2225L10.65 14.7686L10.795 14.6495C11.0292 14.4588 11.2608 14.2698 11.4883 14.0824C12.31 13.4045 13.2608 12.5992 14.0867 11.7623C14.9617 10.9316 15.6831 9.95306 16.2175 8.87169C16.4942 8.28525 16.6417 7.64626 16.65 6.99794C16.6535 6.24664 16.3529 5.52583 15.8167 4.99927C15.2594 4.4579 14.5105 4.15857 13.7333 4.16649C12.7849 4.15844 11.8783 4.55571 11.2417 5.25826L9.98335 6.7073L8.72501 5.25826C8.0884 4.55571 7.18174 4.15844 6.23335 4.16649Z" fill="#303030"/>
</svg>
