<svg xmlns="http://www.w3.org/2000/svg" version="1.1" xmlns:xlink="http://www.w3.org/1999/xlink" xmlns:svgjs="http://svgjs.com/svgjs" width="512" height="512" x="0" y="0" viewBox="0 0 512 512" style="enable-background:new 0 0 512 512" xml:space="preserve" class=""><g><path d="m274.213 163.078 95.037-88.339c.078-.073.148-.151.223-.227.053-.054.107-.106.159-.161.21-.225.407-.459.586-.703l.064-.095c.169-.239.322-.485.461-.738.016-.029.037-.054.052-.084.009-.017.015-.036.024-.053.146-.278.274-.563.383-.855.019-.051.035-.103.053-.154.092-.261.17-.527.233-.796.011-.046.025-.092.035-.138.063-.294.106-.591.134-.89l.015-.203c.019-.282.026-.565.013-.848l-.001-.074a7.61 7.61 0 0 0-.143-1.098 7.633 7.633 0 0 0-.676-1.953 7.748 7.748 0 0 0-.47-.816L329.129 3.402c-.044-.065-.097-.122-.142-.186a7.614 7.614 0 0 0-.361-.471c-.074-.088-.152-.171-.23-.255a8.161 8.161 0 0 0-.442-.45c-.071-.065-.145-.125-.218-.187a7.87 7.87 0 0 0-.529-.421c-.06-.043-.124-.081-.186-.122a7.651 7.651 0 0 0-.628-.385c-.039-.021-.079-.037-.118-.057A7.625 7.625 0 0 0 322.764 0H189.321c-.34 0-.677.023-1.01.067a7.66 7.66 0 0 0-5.44 3.335l-41.264 61.451a7.6 7.6 0 0 0-.471.817c-.032.064-.064.127-.094.192a7.643 7.643 0 0 0-.582 1.761l-.035.184a7.602 7.602 0 0 0-.108.913l-.001.074c-.012.284-.006.567.013.849l.015.201c.028.299.071.597.134.891.01.046.024.092.035.138.063.269.141.535.233.797.018.051.033.102.053.152.11.292.238.577.384.856.009.017.014.036.024.053.016.029.036.054.052.084.139.253.292.499.461.738l.064.095a7.605 7.605 0 0 0 .745.864c.075.076.145.154.223.227l95.037 88.339c-76.533 9.04-136.096 74.304-136.096 153.228 0 85.086 69.222 154.308 154.308 154.308s154.308-69.222 154.308-154.308c0-78.924-59.563-144.188-136.096-153.228zm-1.456-19.577 22.234-66.712h49.536l-71.77 66.712zm-16.737 1.746-22.7-68.457h45.515l-22.815 68.457zm67.438-122.794 26.194 39.008h-47.367l21.173-39.008zm-13.58-7.114-20.48 37.733-20.48-37.733h40.96zM276.51 61.461h-40.935l20.468-37.709 20.467 37.709zm-33.342-46.122-20.48 37.734-20.48-37.734h40.96zm-54.579 7.044L209.8 61.461h-47.451l26.24-39.078zM167.473 76.79h49.697l22.142 66.776-71.839-66.776zM256 455.284c-76.633 0-138.979-62.346-138.979-138.979S179.367 177.326 256 177.326s138.979 62.346 138.979 138.979S332.633 455.284 256 455.284z" fill="#000000" data-original="#000000" class=""></path><path d="M332.818 136.281a7.665 7.665 0 0 0-6.021 14.097c66.56 28.434 109.569 93.564 109.569 165.928 0 99.454-80.912 180.366-180.366 180.366S75.634 415.759 75.634 316.305c0-72.5 43.121-137.679 109.855-166.049a7.664 7.664 0 1 0-5.997-14.107C107.088 166.931 60.305 237.646 60.305 316.305 60.305 424.212 148.093 512 256 512s195.695-87.788 195.695-195.695c0-78.512-46.662-149.175-118.877-180.024z" fill="#000000" data-original="#000000" class=""></path></g></svg>