<?xml version="1.0" standalone="no"?>
<!DOCTYPE svg PUBLIC "-//W3C//DTD SVG 20010904//EN"
 "http://www.w3.org/TR/2001/REC-SVG-20010904/DTD/svg10.dtd">
<svg version="1.0" xmlns="http://www.w3.org/2000/svg"
 width="700.000000pt" height="700.000000pt" viewBox="0 0 700.000000 700.000000"
 preserveAspectRatio="xMidYMid meet">
<metadata>
Created by potrace 1.14, written by Peter Selinger 2001-2017
</metadata>
<g transform="translate(0.000000,700.000000) scale(0.100000,-0.100000)"
fill="#000000" stroke="none">
<path d="M2545 6991 c-30 -13 -29 -12 -339 -473 -303 -454 -308 -462 -270
-517 15 -21 107 -112 162 -159 12 -11 75 -69 139 -128 64 -60 124 -116 133
-124 16 -14 221 -205 295 -275 17 -16 83 -77 145 -135 63 -58 126 -116 140
-130 154 -144 276 -257 289 -266 16 -12 4 -17 -84 -29 -89 -12 -197 -39 -324
-81 -663 -219 -1188 -776 -1367 -1451 -14 -53 -27 -106 -29 -117 -2 -12 -9
-48 -14 -81 -21 -118 -23 -142 -26 -315 -6 -354 58 -644 209 -955 57 -115 178
-314 217 -355 8 -8 27 -33 43 -55 52 -71 268 -279 366 -352 319 -237 646 -366
1065 -418 56 -7 357 -8 395 -1 14 2 51 7 84 11 177 20 379 75 553 151 454 196
812 528 1041 964 122 233 189 448 227 725 12 94 14 440 2 490 -3 11 -8 45 -12
75 -4 30 -13 84 -22 120 -8 36 -17 76 -19 90 -14 70 -92 280 -148 395 -209
429 -544 764 -971 974 -187 92 -391 157 -603 191 l-73 12 22 19 c21 18 187
172 270 250 30 29 117 110 284 264 17 17 81 76 141 131 60 56 125 116 144 134
19 18 87 81 150 140 63 59 129 119 145 134 93 85 155 148 164 165 28 52 20 68
-275 508 -158 236 -297 439 -311 453 l-23 25 -948 2 c-521 1 -956 -2 -967 -6z
m775 -206 c0 -3 -20 -40 -44 -83 -23 -42 -64 -117 -91 -167 -97 -184 -139
-255 -146 -248 -3 5 -25 44 -49 88 -23 44 -82 153 -131 242 -49 89 -89 165
-89 168 0 3 124 5 275 5 151 0 275 -2 275 -5z m901 -24 c-12 -16 -21 -31 -21
-34 0 -4 -47 -92 -135 -252 -18 -33 -47 -87 -65 -120 -17 -33 -35 -63 -39 -68
-4 -4 -16 10 -27 30 -65 120 -112 208 -154 283 -26 47 -59 109 -74 138 l-26
52 281 0 280 0 -20 -29z m-1546 -246 c48 -88 106 -194 128 -235 22 -41 46 -85
54 -97 l13 -23 -325 0 -326 0 178 264 c98 146 181 261 184 258 4 -4 46 -79 94
-167z m1929 -92 l177 -263 -321 0 c-176 0 -320 3 -320 6 0 6 73 142 172 324
14 25 44 80 67 123 24 43 44 77 46 75 1 -2 82 -121 179 -265z m-1054 162 c24
-44 69 -127 100 -185 31 -58 74 -135 94 -172 l36 -68 -280 0 -280 0 24 43 c13
23 69 128 126 232 109 203 130 239 134 233 2 -1 22 -39 46 -83z m-490 -912
c50 -153 95 -287 100 -298 7 -16 60 -180 106 -325 3 -8 -21 10 -52 40 -32 30
-72 69 -89 85 -17 17 -56 52 -86 79 -30 27 -106 98 -169 157 -162 151 -183
171 -311 289 -62 58 -142 132 -177 165 -35 33 -68 62 -73 63 -5 2 -9 8 -9 13
0 5 138 9 334 9 l334 0 92 -277z m748 265 c-3 -7 -72 -214 -154 -460 -82 -247
-151 -448 -154 -448 -3 0 -72 201 -154 448 -81 246 -150 453 -153 460 -4 9 62
12 307 12 246 0 311 -3 308 -12z m834 -50 c-126 -119 -197 -185 -266 -249
-106 -98 -263 -244 -366 -340 -48 -44 -174 -162 -234 -218 -27 -25 -47 -41
-44 -36 3 6 71 211 153 458 l148 447 337 0 338 0 -66 -62z m-907 -1328 c39 -6
86 -13 105 -16 69 -10 201 -45 287 -75 673 -237 1163 -840 1257 -1549 9 -68
12 -166 10 -280 -5 -201 -4 -199 -34 -345 -98 -484 -398 -928 -810 -1200 -325
-214 -679 -320 -1060 -318 -71 0 -219 10 -257 17 -10 2 -38 7 -63 11 -25 4
-72 14 -105 22 -33 8 -64 16 -70 17 -114 23 -387 147 -529 240 -402 263 -712
698 -812 1141 -42 188 -49 255 -48 475 1 141 6 211 22 295 30 158 30 160 62
255 57 176 127 321 228 475 40 61 65 94 142 188 70 85 220 222 331 303 223
163 534 294 779 329 24 4 47 8 51 11 4 2 51 7 105 10 55 4 100 8 102 9 7 6
246 -6 307 -15z"/>
<path d="M2450 5137 c-323 -141 -603 -331 -844 -573 -344 -345 -586 -774 -704
-1249 -94 -372 -101 -808 -22 -1182 12 -54 24 -109 26 -123 8 -39 99 -308 126
-370 83 -195 229 -442 366 -619 102 -133 349 -374 492 -480 407 -303 875 -485
1360 -528 178 -16 521 -7 647 16 26 5 68 12 93 16 143 21 438 114 608 191 40
18 73 33 75 32 1 0 26 14 55 31 29 17 55 31 58 31 10 0 223 136 293 188 162
118 378 323 497 472 277 343 457 726 543 1150 34 166 39 199 48 330 12 160 5
471 -11 521 -2 8 -7 39 -10 69 -3 30 -8 69 -11 85 -72 379 -212 724 -421 1031
-86 128 -88 131 -199 258 -242 280 -530 497 -879 662 -113 54 -138 58 -183 28
-47 -30 -61 -108 -27 -145 10 -12 76 -49 146 -84 106 -53 273 -147 313 -178 6
-4 51 -38 100 -75 120 -90 142 -109 260 -227 323 -322 552 -733 655 -1180 23
-98 29 -128 36 -180 2 -22 7 -49 9 -60 23 -111 23 -517 0 -645 -1 -8 -6 -35
-10 -60 -4 -25 -9 -54 -11 -65 -2 -11 -7 -33 -9 -50 -3 -16 -19 -79 -35 -140
-195 -732 -736 -1347 -1440 -1638 -315 -130 -608 -186 -960 -182 -230 3 -272
6 -450 41 -689 135 -1280 551 -1647 1160 -146 241 -266 558 -308 814 -3 19
-10 60 -15 90 -15 84 -23 212 -24 350 0 116 11 307 18 319 2 3 7 30 10 60 33
278 164 635 335 916 49 81 155 232 170 245 4 3 17 19 30 35 70 92 225 246 352
350 123 101 294 208 490 306 114 58 139 74 149 100 36 85 -55 173 -140 136z"/>
</g>
</svg>
